<svg t="1733715450620" class="icon" viewBox="0 0 1600 1600" version="1.1" xmlns="http://www.w3.org/2000/svg" p-id="3064" width="200" height="200">
  <!-- 白色背景和圆角 -->
  <rect x="0" y="0" width="1600" height="1600" rx="300" ry="300" fill="white"></rect>
  
  <!-- 图形居中 -->
  <g transform="translate(0, 256)">
    <path d="M351.904812 512.089589H1087.608049a256.044794 256.044794 0 1 0-256.044794-256.044795 32.072791 32.072791 0 0 0 63.966404 0v-1.43342A192.07839 192.07839 0 1 1 1087.608049 448.123185H351.904812a32.072791 32.072791 0 1 0 0 63.966404z" fill="#F7C59F" p-id="3065" class=""></path>
    <path d="M1343.832021 576.055993H32.072791a32.072791 32.072791 0 1 0 0 63.966404H1343.832021a128.111986 128.111986 0 1 1-127.932808 128.649519 32.072791 32.072791 0 0 0-63.966405 0A192.07839 192.07839 0 1 0 1343.832021 576.055993z" fill="#C2F2D0" p-id="3066" class=""></path>
    <path d="M927.60245 703.988801H223.972003a32.072791 32.072791 0 1 0 0 63.966405h703.630447a96.039195 96.039195 0 1 1-96.039195 97.293438 3.046019 3.046019 0 0 0 0-1.254243 32.072791 32.072791 0 1 0-63.966405 0 160.005599 160.005599 0 1 0 160.0056-160.0056z" fill="#D6B4FF" p-id="3067" class=""></path>
  </g>
</svg>
