<?xml version="1.0" encoding="UTF-8"?>
<svg version="1.1" xmlns="http://www.w3.org/2000/svg" width="512" height="512">
<path d="M0 0 C1.43149503 -0.00258609 2.86298933 -0.00559993 4.29448265 -0.0090034 C8.21938994 -0.01704806 12.14427892 -0.01886156 16.06919348 -0.01960087 C20.30591991 -0.02145586 24.54263694 -0.02900546 28.77935791 -0.03573608 C38.03991735 -0.04930218 47.30047244 -0.05534151 56.56104016 -0.05974674 C62.34714108 -0.06251223 68.13324034 -0.06675015 73.91934013 -0.07125092 C89.94997458 -0.08344161 105.9806077 -0.09374114 122.01124668 -0.09712601 C123.54943818 -0.09745536 123.54943818 -0.09745536 125.11870426 -0.09779136 C126.66050741 -0.09811878 126.66050741 -0.09811878 128.2334581 -0.09845281 C130.3161968 -0.09889627 132.3989355 -0.09934283 134.48167419 -0.09979248 C136.03132882 -0.10012463 136.03132882 -0.10012463 137.6122896 -0.10046348 C154.3442438 -0.1044097 171.0761544 -0.12185926 187.80809177 -0.145152 C205.00039137 -0.16889175 222.19266913 -0.18132906 239.38498539 -0.18249393 C249.03219951 -0.18340924 258.67935682 -0.18912529 268.32655525 -0.20731354 C276.54294464 -0.22274999 284.75925967 -0.22781414 292.97566081 -0.21957543 C297.16372598 -0.21568139 301.35164156 -0.21653728 305.53968811 -0.23063278 C309.38232314 -0.24344685 313.22469732 -0.24210911 317.06733238 -0.23004207 C319.09764973 -0.22718512 321.1279719 -0.23896369 323.15825278 -0.25146413 C348.86201861 -0.11439775 371.71922086 10.39530502 390.04100037 28.14044189 C408.25121148 47.15025152 416.20015839 70.20895274 416.18144226 96.09944153 C416.18402835 97.53093655 416.18704219 98.96243086 416.19044566 100.39392418 C416.19849033 104.31883147 416.20030382 108.24372045 416.20104313 112.16863501 C416.20289812 116.40536144 416.21044772 120.64207847 416.21717834 124.87879944 C416.23074444 134.13935888 416.23678377 143.39991397 416.241189 152.66048169 C416.24395449 158.44658261 416.24819241 164.23268187 416.25269318 170.01878166 C416.26488387 186.04941611 416.2751834 202.08004923 416.27856827 218.11068821 C416.27878783 219.13614921 416.2790074 220.16161021 416.27923362 221.21814578 C416.2794519 222.24601455 416.27967018 223.27388332 416.27989507 224.33289963 C416.28033853 226.41563833 416.28078509 228.49837703 416.28123474 230.58111572 C416.28145617 231.61421881 416.2816776 232.64732189 416.28190574 233.71173113 C416.28585196 250.44368533 416.30330152 267.17559593 416.32659426 283.9075333 C416.35033401 301.0998329 416.36277132 318.29211066 416.36393619 335.48442692 C416.3648515 345.13164104 416.37056755 354.77879835 416.3887558 364.42599678 C416.40419225 372.64238617 416.4092564 380.85870119 416.4010177 389.07510234 C416.39712365 393.26316751 416.39797954 397.45108309 416.41207504 401.63912964 C416.42488911 405.48176467 416.42355137 409.32413885 416.41148433 413.16677391 C416.40862738 415.19709125 416.42040595 417.22741343 416.43290639 419.2576943 C416.29584001 444.96146014 405.78613724 467.81866239 388.04100037 486.14044189 C369.03119074 504.35065301 345.97248952 512.29959992 320.08200073 512.28088379 C318.65050571 512.28346988 317.2190114 512.28648372 315.78751808 512.28988719 C311.86261079 512.29793185 307.93772181 512.29974535 304.01280725 512.30048466 C299.77608082 512.30233965 295.53936379 512.30988925 291.30264282 512.31661987 C282.04208339 512.33018597 272.78152829 512.3362253 263.52096057 512.34063053 C257.73485965 512.34339602 251.94876039 512.34763394 246.1626606 512.3521347 C230.13202615 512.3643254 214.10139303 512.37462493 198.07075405 512.3780098 C196.53256255 512.37833915 196.53256255 512.37833915 194.96329648 512.37867515 C193.42149332 512.37900256 193.42149332 512.37900256 191.84854263 512.3793366 C189.76580393 512.37978006 187.68306523 512.38022662 185.60032654 512.38067627 C184.05067191 512.38100841 184.05067191 512.38100841 182.46971113 512.38134727 C165.73775693 512.38529349 149.00584633 512.40274305 132.27390897 512.42603579 C115.08160936 512.44977554 97.8893316 512.46221285 80.69701535 512.46337771 C71.04980122 512.46429303 61.40264391 512.47000908 51.75544548 512.48819733 C43.53905609 512.50363378 35.32274107 512.50869793 27.10633992 512.50045922 C22.91827475 512.49656518 18.73035917 512.49742106 14.54231262 512.51151657 C10.69967759 512.52433063 6.85730341 512.52299289 3.01466835 512.51092586 C0.98435101 512.5080689 -1.04597117 512.51984748 -3.07625204 512.53234792 C-28.78001788 512.39528154 -51.63722013 501.88557876 -69.95899963 484.14044189 C-88.16921075 465.13063227 -96.11815766 442.07193105 -96.09944153 416.18144226 C-96.10202762 414.74994723 -96.10504146 413.31845293 -96.10844493 411.88695961 C-96.11648959 407.96205232 -96.11830309 404.03716334 -96.1190424 400.11224878 C-96.12089739 395.87552235 -96.12844699 391.63880532 -96.13517761 387.40208435 C-96.14874371 378.14152491 -96.15478304 368.88096982 -96.15918827 359.6204021 C-96.16195376 353.83430118 -96.16619168 348.04820192 -96.17069244 342.26210213 C-96.18288314 326.23146768 -96.19318267 310.20083456 -96.19656754 294.17019558 C-96.1967871 293.14473458 -96.19700667 292.11927358 -96.19723289 291.06273801 C-96.19745116 290.03486924 -96.19766944 289.00700047 -96.19789433 287.94798416 C-96.1983378 285.86524546 -96.19878436 283.78250676 -96.19923401 281.69976807 C-96.19945544 280.66666498 -96.19967687 279.6335619 -96.19990501 278.56915266 C-96.20385123 261.83719846 -96.22130079 245.10528786 -96.24459353 228.37335049 C-96.26833328 211.18105089 -96.28077059 193.98877313 -96.28193545 176.79645687 C-96.28285077 167.14924275 -96.28856682 157.50208544 -96.30675507 147.85488701 C-96.32219152 139.63849762 -96.32725567 131.42218259 -96.31901696 123.20578145 C-96.31512292 119.01771628 -96.3159788 114.8298007 -96.33007431 110.64175415 C-96.34288837 106.79911912 -96.34155063 102.95674494 -96.3294836 99.11410988 C-96.32662664 97.08379254 -96.33840522 95.05347036 -96.35090566 93.02318949 C-96.21808161 68.11497855 -86.28768437 44.53631497 -68.80665588 26.82012939 C-64.16133384 22.44881125 -59.24596608 18.69950655 -53.95899963 15.14044189 C-53.07212463 14.52555908 -52.18524963 13.91067627 -51.27149963 13.27716064 C-35.60218285 3.23900458 -18.25037757 -0.01319312 0 0 Z " fill="#3178C6" transform="translate(95.95899963378906,-0.14044189453125)"/>
<path d="M0 0 C2.69184507 0.0160359 5.38217556 0.00008084 8.07397461 -0.01904297 C24.43590378 -0.03901145 42.95755539 0.92372398 57.89233398 8.39111328 C57.89233398 23.90111328 57.89233398 39.41111328 57.89233398 55.39111328 C52.28233398 52.75111328 46.67233398 50.11111328 40.89233398 47.39111328 C22.96768681 40.3628683 -1.37897467 36.70414398 -19.72338867 44.50317383 C-25.27516504 47.29945972 -29.28709538 50.74997202 -32.10766602 56.39111328 C-32.8222532 63.02656568 -32.98701848 69.02206718 -28.88891602 74.53173828 C-18.14535814 85.74650484 -2.48589515 91.40874269 11.51733398 97.39111328 C23.89176905 102.69026175 35.70035849 108.42361541 45.89233398 117.39111328 C46.78694336 118.15681641 47.68155273 118.92251953 48.60327148 119.71142578 C59.18448169 129.42294748 66.08850019 141.86968103 66.89233398 156.39111328 C66.93326172 157.05868652 66.97418945 157.72625977 67.01635742 158.4140625 C67.6116972 169.4573694 66.49951064 178.86622613 62.89233398 189.39111328 C62.54170898 190.46232422 62.19108398 191.53353516 61.82983398 192.63720703 C58.99340387 200.36844884 54.76154265 205.68579176 48.89233398 211.39111328 C48.07829102 212.23609375 48.07829102 212.23609375 47.24780273 213.09814453 C38.87968887 221.12729682 27.562775 224.75864901 16.64233398 227.76611328 C15.73217529 228.01683594 14.8220166 228.26755859 13.88427734 228.52587891 C2.86904878 231.39169433 -7.98876888 231.57758923 -19.30908203 231.57641602 C-21.64122231 231.57858635 -23.97287557 231.59675484 -26.30493164 231.61572266 C-40.5681993 231.67147239 -54.51043756 230.68407987 -68.23266602 226.51611328 C-69.09891602 226.27248047 -69.96516602 226.02884766 -70.85766602 225.77783203 C-76.33263242 224.17195283 -79.90974857 222.36135182 -85.10766602 219.39111328 C-85.10766602 203.55111328 -85.10766602 187.71111328 -85.10766602 171.39111328 C-79.66266602 174.85611328 -79.66266602 174.85611328 -74.10766602 178.39111328 C-65.12389823 183.50406151 -56.17113475 187.04885565 -46.10766602 189.39111328 C-45.18083008 189.61669922 -44.25399414 189.84228516 -43.29907227 190.07470703 C-36.67725184 191.43664173 -30.09413301 191.59206559 -23.35766602 191.64111328 C-22.02626587 191.65513184 -22.02626587 191.65513184 -20.66796875 191.66943359 C-9.35195217 191.61433172 1.73150099 188.55194628 9.89233398 180.39111328 C12.61336713 174.873984 12.63071556 169.41599274 11.89233398 163.39111328 C8.3020421 153.23023867 -1.85826174 147.13187028 -11.04418945 142.67016602 C-15.47179495 140.57454674 -19.93577676 138.55903819 -24.39672852 136.53564453 C-49.47060494 125.14555538 -73.6908581 113.67656527 -84.29516602 86.32861328 C-86.23962518 79.29864552 -86.32002191 72.32980953 -86.35766602 65.07861328 C-86.38860352 63.60618164 -86.38860352 63.60618164 -86.42016602 62.10400391 C-86.50109842 46.81789661 -79.87324099 33.47219114 -69.33422852 22.52783203 C-50.66556063 4.61246127 -24.97052103 -0.17615091 0 0 Z " fill="#FDFEFE" transform="translate(402.107666015625,237.60888671875)"/>
<path d="M0 0 C59.07 0 118.14 0 179 0 C179 13.53 179 27.06 179 41 C157.88 41 136.76 41 115 41 C115 101.39 115 161.78 115 224 C98.17 224 81.34 224 64 224 C64 163.61 64 103.22 64 41 C42.88 41 21.76 41 0 41 C0 27.47 0 13.94 0 0 Z " fill="#FFFFFF" transform="translate(118,243)"/>
</svg>
