<svg width="58" height="58" version="1.1" xmlns="http://www.w3.org/2000/svg" desc="Created with imagetracer.js version 1.2.6" ><path fill="rgb(42,153,56)" stroke="rgb(42,153,56)" stroke-width="1" opacity="0.8509803921568627" d="M 19.5 15 L 20 40.5 L 19 40.5 L 19.5 15 Z " /><path fill="rgb(42,153,56)" stroke="rgb(42,153,56)" stroke-width="1" opacity="0.8509803921568627" d="M 37.5 15 L 38 40.5 L 37 40.5 L 37.5 15 Z " /><path fill="rgb(43,153,57)" stroke="rgb(43,153,57)" stroke-width="1" opacity="1" d="M 2.5 1 L 54.5 1 L 57 3.5 L 57 55.5 L 54.5 58 L 2.5 58 L 0 55.5 L 0 3.5 L 2.5 1 Z M 13 15 L 13 47 L 44 47 L 44 15 L 38 15 L 37 16 L 37 41 L 20 41 L 20 16 L 20 15 L 13 15 Z " /><path fill="rgb(0,0,0)" stroke="rgb(0,0,0)" stroke-width="1" opacity="0" d="M 0.5 0 L 58 0 L 58 57.5 L 57 57.5 L 57 1 L 0.5 1 L 0.5 0 Z " /><path fill="rgb(0,0,0)" stroke="rgb(0,0,0)" stroke-width="1" opacity="0" d="M 14 16 L 19 16.5 L 19 41 L 38 41 L 38 16.5 L 43 16 L 43 46 L 14 46 L 14 16 Z " /><path fill="rgb(44,153,58)" stroke="rgb(44,153,58)" stroke-width="1" opacity="0.45098039215686275" d="M 0 1 L 2 1.5 L 0 2.5 L 0 1 Z " /><path fill="rgb(44,153,58)" stroke="rgb(44,153,58)" stroke-width="1" opacity="0.45098039215686275" d="M 55.5 1 Q 57.8 0.3 57 2.5 L 55.5 1 Z " /><path fill="rgb(44,153,58)" stroke="rgb(44,153,58)" stroke-width="1" opacity="0.45098039215686275" d="M 14.5 15 L 19 15.5 L 14 16 L 14 46 L 43 46 L 43 16.5 Q 43 15.5 38.5 16 L 38.5 15 Q 43 14 44 16.5 L 44 45.5 L 42.5 47 L 14.5 47 L 13 45.5 L 13 16.5 L 14.5 15 Z " /><path fill="rgb(44,153,58)" stroke="rgb(44,153,58)" stroke-width="1" opacity="0.45098039215686275" d="M 0.5 56 L 1.5 58 Q -1.3 58.7 0.5 56 Z " /><path fill="rgb(44,153,58)" stroke="rgb(44,153,58)" stroke-width="1" opacity="0.45098039215686275" d="M 56.5 56 L 57 58 L 55 57.5 L 56.5 56 Z " /></svg>